Coordinates
nRows=4
nColumns=38

# SIMM Motion File Header:
name Coordinates
datacolumns 38
datarows 4
otherdata 1
range 1.61140000000000020000 1.61440000000000010000

Units are S.I. units (second, meters, Newtons, ...)
Angles are in degrees.

endheader
time	pelvis_tilt	pelvis_list	pelvis_rotation	pelvis_tx	pelvis_ty	pelvis_tz	hip_flexion_r	hip_adduction_r	hip_rotation_r	knee_angle_r	ankle_angle_r	subtalar_angle_r	mtp_angle_r	hip_flexion_l	hip_adduction_l	hip_rotation_l	knee_angle_l	ankle_angle_l	subtalar_angle_l	mtp_angle_l	lumbar_extension	lumbar_bending	lumbar_rotation	arm_flex_r	arm_add_r	arm_rot_r	elbow_flex_r	pro_sup_r	wrist_flex_r	wrist_dev_r	arm_flex_l	arm_add_l	arm_rot_l	elbow_flex_l	pro_sup_l	wrist_flex_l	wrist_dev_l
      1.61140000000000020000	     -4.23664207245797630000	     -0.06389455898662330100	      2.07768679585820020000	      0.92560912674174001000	      1.01355052363804440000	     -0.26777835617086226000	    -10.20284558729234300000	      3.11417939304060140000	     -2.10497083129675610000	    -52.09925236384093900000	    -19.89045713869263600000	     -0.00000000000004311440	     -0.00000000000007315161	     22.79034674069059500000	      5.88804102160875420000	     12.71505589843254200000	     -3.72126819183059520000	      7.19348590407324110000	      0.00000000000001980089	      0.00000000000004249965	     -5.51916987349843420000	     -0.01751278830604606500	      8.57364147340136460000	    -26.86523378880858800000	    -23.00811858381073400000	      4.11640959981550660000	    106.69589450398266000000	    100.00446182102750000000	      0.00000000000000634829	     -0.00000000000003454959	    -46.52317340518908400000	    -20.07615867006052200000	     -1.75534353591060820000	    112.91635258881233000000	    112.68294019249278000000	      0.00000000000000149633	      0.00000000000001411398
      1.61240000000000010000	     -4.16777608424788590000	     -0.02162935635830835400	      2.11278285443523920000	      0.92559697972872468000	      1.01310949851199990000	     -0.26777669698005430000	    -10.03628090206542300000	      3.04040996166574470000	     -2.20664316348932400000	    -52.73084070933907000000	    -19.77747823931615300000	     -0.00000000000004345442	     -0.00000000000007321026	     22.71363589194684000000	      5.98290970294480750000	     12.66444609121885500000	     -3.85460333310475000000	      7.22545375323400310000	      0.00000000000001989188	      0.00000000000004271834	     -5.62919931193584060000	     -0.08290030092961561700	      8.47829614433969960000	    -26.89649927862304700000	    -22.96670506391016500000	      4.12781856224764980000	    106.49317995482325000000	     99.93487588603567000000	      0.00000000000000636653	     -0.00000000000003473261	    -46.42326549675912200000	    -20.07417259782241800000	     -1.78103323376009180000	    112.87106156965218000000	    112.62374169545178000000	      0.00000000000000150133	      0.00000000000001410232
      1.61340000000000020000	     -4.10093907819986560000	      0.02270194079435562300	      2.14877189197271700000	      0.92558309849657983000	      1.01265595924590040000	     -0.26777689336950711000	     -9.86680751881037920000	      2.96343742182003480000	     -2.30929162299158850000	    -53.36254521373427900000	    -19.66242407925339500000	     -0.00000000000004379553	     -0.00000000000007326924	     22.63964503552460500000	      6.08045673304045220000	     12.61667160455003500000	     -3.99370887963698080000	      7.24866912000879450000	      0.00000000000001998357	      0.00000000000004293996	     -5.73728421733246740000	     -0.15047234952597266000	      8.38101871519695860000	    -26.92847706703511400000	    -22.92455960785357000000	      4.13889831226670600000	    106.28866382912884000000	     99.86637072442796600000	      0.00000000000000638483	     -0.00000000000003491597	    -46.32272921161846600000	    -20.07325849808916000000	     -1.80692800790145960000	    112.82555263791255000000	    112.56514377832673000000	      0.00000000000000150587	      0.00000000000001409068
      1.61440000000000010000	     -4.03609299078443230000	      0.06906270378122994500	      2.18579447046775810000	      0.92556761022955414000	      1.01218993920300830000	     -0.26777922139109034000	     -9.69456345376693560000	      2.88325218931272650000	     -2.41311468040754340000	    -53.99425559781926200000	    -19.54524307222717300000	     -0.00000000000004413759	     -0.00000000000007332741	     22.56833484521278500000	      6.18069750437186280000	     12.57179677233452100000	     -4.13853927752599480000	      7.26334458419763250000	      0.00000000000002007498	      0.00000000000004316214	     -5.84344271180058070000	     -0.22015598995418179000	      8.28166762722908520000	    -26.96120501461912500000	    -22.88171907096086200000	      4.14963604874348220000	    106.08241116350769000000	     99.79917749538158500000	      0.00000000000000640366	     -0.00000000000003509870	    -46.22162424417754100000	    -20.07342457728781300000	     -1.83303435458893850000	    112.77987935964337000000	    112.50714323199448000000	      0.00000000000000151005	      0.00000000000001407884
